PathFileType	4	(X/Y/Z)	17_coords_data.trc
DataRate	CameraRate	NumFrames	NumMarkers	Units	OrigDataRate	OrigDataStartFrame	OrigNumFrames
30.0	30.0	7	21	m	30.0	22	53
Frame#	Time	THUMB_TIP	THUMB_IP	THUMB_MCP	THUMB_CMC	INDEX_TIP	INDEX_DIP	INDEX_PIP	INDEX_MCP	MIDDLE_TIP	MIDDLE_DIP	MIDDLE_PIP	MIDDLE_MCP	RING_TIP	RING_DIP	RING_PIP	RING_MCP	PINKY_TIP	PINKY_DIP	PINKY_PIP	PINKY_MCP	WRIST
X1	Y1	Z1	X2	Y2	Z2	X3	Y3	Z3	X4	Y4	Z4	X5	Y5	Z5	X6	Y6	Z6	X7	Y7	Z7	X8	Y8	Z8	X9	Y9	Z9	X10	Y10	Z10	X11	Y11	Z11	X12	Y12	Z12	X13	Y13	Z13	X14	Y14	Z14	X15	Y15	Z15	X16	Y16	Z16	X17	Y17	Z17	X18	Y18	Z18	X19	Y19	Z19	X20	Y20	Z20	X21	Y21	Z21
20	0.6999999999999968	0.5399968963696605	-0.0011728475907497593	-0.13275839318879656	0.5181108504893231	-0.007353390258474035	-0.1294717705977154	0.4909301107735976	-0.01571413752102624	-0.1168177082571979	0.478684164597483	-0.026290278920169663	-0.0752476224338918	0.5073882128689383	-0.0009761094931678427	-0.11770833154214824	0.5225732731549549	0.0056905540540101995	-0.12498634921585353	0.528169847439606	0.03005013305244386	-0.1276880339301472	0.49090778039681227	0.03410585829140422	-0.10747107207915663	0.5109324832872133	-0.010399964184120591	-0.10249998181800823	0.5278415155372388	-0.004589718997804582	-0.1053854071319765	0.5406126821645293	0.021604691108039975	-0.10578507222279177	0.5039335932871166	0.03809623608517321	-0.08632173991842881	0.5100457306928854	-0.011861320458233293	-0.08407168910933269	0.5276373258668439	-0.008360904010186854	-0.08588355663368591	0.5445536561752193	0.009869085098170083	-0.08458538676532104	0.5165429710113124	0.0337150784172765	-0.06780769463339684	0.5098230311605924	-0.023960289050213412	-0.06805589353754882	0.5266540066396145	-0.022849294632508066	-0.07096861663258913	0.5415082765528098	-0.008402235585947215	-0.06758554565326774	0.5238045742022122	0.017840376677620284	-0.05030006979445767	0.462283081001861	-0.023011742144276925	-0.05198982011943101
21	0.7333333333333302	0.5383005194481187	-0.00016932201161412586	-0.13622572049887113	0.5168991866025993	-0.006398484714871477	-0.13064177167643015	0.49018174492208333	-0.014992205846964368	-0.11718271275122835	0.47816867697397203	-0.025960111279369036	-0.0756462077357617	0.5110465301483852	-0.0014370496766957785	-0.11900426156466842	0.5252849853794801	0.00740941516386906	-0.12586038674269398	0.5286074990758212	0.032281292275416984	-0.12739676712713016	0.49120352334711737	0.03428285299868983	-0.10713417972182579	0.5149896478849042	-0.011236095396430001	-0.1045490249089652	0.5310823632137504	-0.0032295248379401453	-0.10676698370854715	0.5414459386318901	0.023992154156058154	-0.10577398456441306	0.5040934616122897	0.038256904803291025	-0.0858376541479973	0.5141087699092525	-0.013768010357692373	-0.08654343123001687	0.5310834708958762	-0.007774668326707923	-0.08751264622905153	0.5460572977033016	0.01193943755322957	-0.0848073700701637	0.5166552105103933	0.03367779524100478	-0.06755390932343316	0.5128599310335619	-0.026444849678409432	-0.07123668397995175	0.5295618484095231	-0.02298914376203498	-0.07268721925566837	0.542796812514452	-0.007369821009995392	-0.06803055726354734	0.5238977029117551	0.0176987137755662	-0.05027455346397747	0.4622830810018609	-0.023011742144276925	-0.051989820119430985
22	0.7666666666666633	0.53584946414527	0.0007620446137096559	-0.14007821754972244	0.5152465280811233	-0.005479859655263208	-0.13204343960421205	0.4890924045739573	-0.014294870720666153	-0.11765325532850748	0.4775551476586103	-0.025641908853817674	-0.07608371806293177	0.5160433672300484	-0.001913297874308606	-0.12091275060906109	0.5287422551009986	0.009462206409063367	-0.12702308195359702	0.5293012073949278	0.034595675972474704	-0.12710126787424986	0.4918352848103775	0.03422593260703388	-0.10685765088685839	0.520650624936363	-0.011853964833066555	-0.10717052282562384	0.5354699752166991	-0.0015150980084158716	-0.10839309799748026	0.5426533459061116	0.026596722681388796	-0.10564823496942882	0.5045622807052024	0.03818728896337953	-0.08537812283054638	0.5198628803518435	-0.015617523878014294	-0.08958929321295761	0.5357172439310368	-0.007038498109208646	-0.08939061669969911	0.5480237772359127	0.014148724317967543	-0.0849374354955105	0.5170789270034236	0.03332501974576929	-0.06734747325125043	0.5177989760099645	-0.029404703975689617	-0.07476498340736001	0.5337843777261692	-0.023293160385746248	-0.07442444424694239	0.5447678386775857	-0.006461381075941741	-0.06835263975447484	0.5242642870711002	0.017142380019924852	-0.05037069645989606	0.462283081001861	-0.023011742144276925	-0.051989820119430985
23	0.7999999999999965	0.5326604678207411	0.0015840434647123036	-0.14416966084351557	0.513186357005395	-0.004627687524980328	-0.13367330880753098	0.4877225880137873	-0.013609709819257687	-0.11818977741940323	0.4768460317604266	-0.025342032276605142	-0.07654913460707016	0.5224942132236093	-0.002066939993919381	-0.12356753776466128	0.5328568336204119	0.011947039523942604	-0.1284893744731188	0.5302085279752765	0.036892649146941014	-0.12684229501331545	0.49282235864377455	0.03388499665898281	-0.10667141344537354	0.5280863172225241	-0.011883842212242701	-0.11030866755299729	0.5410520799655576	0.0007605869622755446	-0.11022260163665434	0.5442023742931206	0.029335319315627162	-0.10542991276880037	0.505377640679987	0.03781580283031205	-0.08501253340154627	0.527571741494172	-0.01709875616798895	-0.09326996608552501	0.5416459494865845	-0.005973070794768942	-0.09149914865777134	0.5504040399538251	0.016419782654520598	-0.0850156353535303	0.5178681427059644	0.032570744127703	-0.06725943452766583	0.5251654059468585	-0.032675717140797755	-0.07853890562980731	0.5394718615165203	-0.023613404871761445	-0.07604896077665016	0.5473816650584993	-0.005687234839925948	-0.06850578804118801	0.5249122206450214	0.016133665561602006	-0.050621274505275926	0.4622830810018609	-0.023011742144276925	-0.051989820119430985
24	0.8333333333333297	0.5287695856019271	0.00224988464762621	-0.14828896081655976	0.5107289699229264	-0.003908519914732511	-0.13545890862769788	0.4860712534225692	-0.012973707687029545	-0.11876641367814042	0.4760620573378016	-0.025093394417328385	-0.07701932770443332	0.5302935285783346	-0.0014783991653927187	-0.12697960774433206	0.5374527756694585	0.014836239844385757	-0.13023195075650773	0.531271958431818	0.038941294392720316	-0.12666072176683218	0.4941417721023561	0.033222644631091036	-0.10660374288058727	0.5374225089255138	-0.010950381993780178	-0.11390488474238225	0.5477368556479096	0.0038367700261372484	-0.11218605175746224	0.5459920454238281	0.03206246379519184	-0.10513797410908893	0.5065316481221468	0.03709846092642377	-0.0847992499925744	0.5374827447376143	-0.017745020175205073	-0.0974783616540155	0.5488412733141728	-0.0042581165907006335	-0.0937250617355723	0.55309240173009	0.018691617050429876	-0.08504073032823056	0.5190218029781546	0.03136896945109102	-0.06734327653413708	0.5354880559274682	-0.0357216867631045	-0.0823007221052221	0.5466218130820394	-0.023690973030186635	-0.07737107924801495	0.5504823588924981	-0.0050913792791653645	-0.06842885819604369	0.5258136846715669	0.01466619082761822	-0.05105133286425084	0.462283081001861	-0.023011742144276925	-0.051989820119430985
25	0.8666666666666629	0.524298501638298	0.002725349529682952	-0.15224871340518445	0.5079209640498923	-0.0033914050138618146	-0.13733692020669958	0.4841978241821264	-0.012496473161941801	-0.11936109285902974	0.4752339231829481	-0.02493401390551986	-0.07747021009047539	0.538941250978083	0.00025252694177091417	-0.1310897271714467	0.5421784908312927	0.01803546976273418	-0.1322242855697417	0.5324500226042371	0.04053500991188275	-0.12664419309451974	0.49575530005183555	0.032164855854329266	-0.10671747856715497	0.5486128867173405	-0.00864023408224679	-0.11788118897672198	0.5552015145526004	0.007814763847206141	-0.11416325589634799	0.5479475149126819	0.034462019518453624	-0.10485128486894288	0.5080371623015884	0.0359470150857647	-0.08482364238104012	0.5495956004284897	-0.016947784810874	-0.10203242662976925	0.5570247997518986	-0.001692148463987464	-0.09594370286656456	0.5559007741417307	0.020689615129237837	-0.08508215583657538	0.5205352227061145	0.02965253575805904	-0.06765617926548348	0.5489105205498432	-0.03737729945275259	-0.08539889505830739	0.5550110664318886	-0.023144319513159206	-0.078104676664251	0.5539536599277107	-0.004705582275008835	-0.0681193434426017	0.5269570476479185	0.012679078177458725	-0.051692537381562764	0.4622830810018609	-0.023011742144276925	-0.05198982011943096
26	0.8999999999999961	0.5195944294063801	0.003019979696259112	-0.15575333116238327	0.5049251432317398	-0.003058560529420995	-0.13914419536754746	0.4821750391766553	-0.012092936947423416	-0.11991835837092568	0.47440569976165614	-0.0248376579234465	-0.07788147632315881	0.5475860397278692	0.003518352987174178	-0.13540042973623595	0.5466632944928146	0.021565866435002246	-0.13420218118871052	0.5336600758052173	0.04172530655645246	-0.12668399585232848	0.49754147531005355	0.030827501791054868	-0.10692746165308112	0.5611050134605724	-0.004145015429914745	-0.12166364118121795	0.5628109792789424	0.012894561712610608	-0.11576936502290305	0.5499607242873278	0.03649066006682622	-0.10447756981095083	0.5097972363664345	0.03442839497343775	-0.08501506170657608	0.563266811374919	-0.01376862232859588	-0.106087097864982	0.5655323466145086	0.002010510115507902	-0.09766769590346386	0.5586652408026819	0.02234749239368994	-0.08504113704579858	0.5222914827366126	0.027486442404191958	-0.06815144341504747	0.5640200860272991	-0.03631415827851214	-0.08669578063743386	0.5638709622532962	-0.021633172741231887	-0.0778954155453373	0.557527011289899	-0.004517660173430915	-0.06752114281345578	0.5282378315033281	0.010249823672324077	-0.0525228489339741	0.4622830810018609	-0.023011742144276925	-0.051989820119430985
